# xmcd
#
# Track frame offsets: 
#        150
#        18153
#        51249
#        78378
#        123282
#        144514
#        178312
#        204545
#
# Disc length: 3417 seconds
#
# Revision: 4
# Processed by: cddbd v1.5.2PL0 Copyright (c) Steve Scherf et al.
# Submitted via: ExactAudioCopyFreeDBPlugin 1.0
#
DISCID=6a0d5708
DTITLE=Sherman Robertson and Blues Move - Guitar Man - Live
DYEAR=2006
DGENRE=Blues
TTITLE0=Out Of Sight Out Of Mind
TTITLE1=Long Way From Home
TTITLE2=Guitar Man
TTITLE3=Dust My Broom (Voodoo Dust)
TTITLE4=Home Of The Blues
TTITLE5=Linda Lou
TTITLE6=Make It Rain
TTITLE7=Tin Pan Alley
EXTD=
EXTT0=
EXTT1=
EXTT2=
EXTT3=
EXTT4=
EXTT5=
EXTT6=
EXTT7=
PLAYORDER=
